<svg width="50" height="51" viewBox="0 0 50 51" fill="none" xmlns="http://www.w3.org/2000/svg">
<g filter="url(#filter0_d_542_1862)">
<rect x="1" width="48" height="48" rx="10.6667" fill="#742ACE"/>
<path d="M18.6403 14.3999C19.5745 14.3999 20.4273 14.4813 21.1986 14.6423C21.9699 14.8033 22.6285 15.0676 23.1779 15.4354C23.7274 15.8032 24.1538 16.2913 24.4571 16.9014C24.7604 17.5115 24.9112 18.264 24.9112 19.1605C24.9112 20.1282 24.6859 20.9349 24.237 21.5806C23.7881 22.2263 23.1225 22.7551 22.2437 23.1669C23.4535 23.5076 24.3566 24.1041 24.9528 24.9549C25.549 25.8057 25.8471 26.8327 25.8471 28.0343C25.8471 29.002 25.6548 29.8409 25.27 30.5493C24.8852 31.2577 24.367 31.8356 23.7153 32.2831C23.0636 32.7322 22.3217 33.0626 21.488 33.2779C20.6491 33.4931 19.7843 33.6016 18.9176 33.5999H9.40039V14.3999H18.6403ZM18.0909 22.1704C18.8604 22.1704 19.4931 21.9908 19.9888 21.6332C20.4845 21.2739 20.7323 20.6926 20.7306 19.8859C20.7306 19.4384 20.6474 19.0707 20.4828 18.7843C20.3181 18.4978 20.098 18.2724 19.8224 18.1114C19.5468 17.9504 19.2314 17.8386 18.8743 17.7759C18.5069 17.7132 18.1342 17.681 17.7598 17.6827H13.7196V22.1738L18.0909 22.1704ZM18.3387 30.3171C18.746 30.3188 19.1516 30.2781 19.5485 30.1968C19.9333 30.1154 20.273 29.9816 20.566 29.7934C20.8589 29.6053 21.0929 29.3494 21.2679 29.0274C21.4412 28.7054 21.5296 28.2919 21.5296 27.7902C21.5296 26.8056 21.2454 26.1006 20.6769 25.6803C20.1084 25.2583 19.3561 25.0481 18.4219 25.0481H13.7196V30.3188L18.3387 30.3171ZM31.2791 29.9138C31.865 30.4697 32.7091 30.7476 33.8097 30.7476C34.5983 30.7476 35.276 30.5544 35.8445 30.1697C36.413 29.785 36.7614 29.3765 36.8896 28.9461H40.3267C39.7772 30.6137 38.9331 31.8051 37.7961 32.522C36.6591 33.2389 35.2847 33.5982 33.671 33.5982C32.5531 33.5982 31.5443 33.4236 30.6465 33.0745C29.7487 32.7254 28.9878 32.2271 28.3638 31.5814C27.7398 30.9357 27.258 30.1663 26.92 29.2698C26.582 28.3732 26.4122 27.3869 26.4122 26.3124C26.4122 25.2735 26.5855 24.3058 26.9339 23.4093C27.2823 22.5127 27.778 21.7382 28.4193 21.0841C29.0606 20.4299 29.8267 19.9147 30.7158 19.5384C31.605 19.1622 32.5912 18.9741 33.6727 18.9741C34.8825 18.9741 35.9364 19.2029 36.8359 19.6605C37.7337 20.118 38.4721 20.7315 39.0493 21.5027C39.6264 22.2738 40.0441 23.1517 40.3007 24.138C40.5572 25.1244 40.649 26.1548 40.5763 27.231H30.3189C30.3726 28.4631 30.6933 29.3596 31.2791 29.9138ZM35.6937 22.6009C35.2257 22.0992 34.5151 21.8484 33.5618 21.8484C32.9378 21.8484 32.4196 21.9518 32.0088 22.1568C31.5963 22.3636 31.267 22.6178 31.0191 22.9229C30.7713 23.2279 30.598 23.5499 30.4974 23.8906C30.3969 24.2312 30.3362 24.5363 30.3189 24.8041H36.6713C36.4858 23.838 36.1599 23.1025 35.6937 22.6009ZM29.6499 15.3744H37.5864V17.5267H29.6499V15.3744Z" fill="#EFF6FF"/>
</g>
<defs>
<filter id="filter0_d_542_1862" x="0" y="0" width="50" height="51" filterUnits="userSpaceOnUse" color-interpolation-filters="sRGB">
<feFlood flood-opacity="0" result="BackgroundImageFix"/>
<feColorMatrix in="SourceAlpha" type="matrix" values="0 0 0 0 0 0 0 0 0 0 0 0 0 0 0 0 0 0 127 0" result="hardAlpha"/>
<feOffset dy="2"/>
<feGaussianBlur stdDeviation="0.5"/>
<feComposite in2="hardAlpha" operator="out"/>
<feColorMatrix type="matrix" values="0 0 0 0 1 0 0 0 0 1 0 0 0 0 1 0 0 0 0.45 0"/>
<feBlend mode="normal" in2="BackgroundImageFix" result="effect1_dropShadow_542_1862"/>
<feBlend mode="normal" in="SourceGraphic" in2="effect1_dropShadow_542_1862" result="shape"/>
</filter>
</defs>
</svg>
