<svg width="50" height="51" viewBox="0 0 50 51" fill="none" xmlns="http://www.w3.org/2000/svg">
<g filter="url(#filter0_d_542_1861)">
<rect x="1" width="48" height="48" rx="10.6667" fill="#742ACE"/>
<path d="M25.0035 12.1958C28.8512 12.1958 29.3029 12.2129 30.8237 12.2815C32.2302 12.3444 32.9906 12.5788 33.4994 12.7789C34.174 13.0419 34.6543 13.3507 35.1574 13.8538C35.6606 14.3569 35.975 14.8372 36.2323 15.5118C36.4267 16.0206 36.6668 16.781 36.7297 18.1875C36.7983 19.7083 36.8154 20.16 36.8154 24.0077C36.8154 27.8555 36.7983 28.3071 36.7297 29.8279C36.6668 31.2344 36.4324 31.9948 36.2323 32.5036C35.9693 33.1783 35.6606 33.6585 35.1574 34.1617C34.6543 34.6648 34.174 34.9792 33.4994 35.2365C32.9906 35.4309 32.2302 35.671 30.8237 35.7339C29.3029 35.8025 28.8512 35.8197 25.0035 35.8197C21.1557 35.8197 20.7041 35.8025 19.1833 35.7339C17.7768 35.671 17.0164 35.4366 16.5075 35.2365C15.8329 34.9735 15.3527 34.6648 14.8495 34.1617C14.3464 33.6585 14.032 33.1783 13.7747 32.5036C13.5803 31.9948 13.3402 31.2344 13.2773 29.8279C13.2087 28.3071 13.1915 27.8555 13.1915 24.0077C13.1915 20.16 13.2087 19.7083 13.2773 18.1875C13.3402 16.781 13.5746 16.0206 13.7747 15.5118C14.0377 14.8372 14.3464 14.3569 14.8495 13.8538C15.3527 13.3507 15.8329 13.0362 16.5075 12.7789C17.0164 12.5845 17.7768 12.3444 19.1833 12.2815C20.7041 12.2072 21.1614 12.1958 25.0035 12.1958ZM25.0035 9.6001C21.0928 9.6001 20.6011 9.61725 19.0632 9.68586C17.5309 9.75447 16.4847 10.0003 15.5699 10.3548C14.6208 10.7207 13.8204 11.2181 13.02 12.0185C12.2196 12.8189 11.7279 13.6251 11.3562 14.5684C11.0018 15.4832 10.7559 16.5295 10.6873 18.0674C10.6187 19.5997 10.6016 20.0914 10.6016 24.002C10.6016 27.9126 10.6187 28.4043 10.6873 29.9423C10.7559 31.4745 11.0018 32.5208 11.3562 33.4413C11.7222 34.3904 12.2196 35.1908 13.02 35.9912C13.8204 36.7916 14.6266 37.2833 15.5699 37.6549C16.4847 38.0094 17.5309 38.2553 19.0689 38.3239C20.6069 38.3925 21.0928 38.4096 25.0092 38.4096C28.9256 38.4096 29.4115 38.3925 30.9495 38.3239C32.4817 38.2553 33.528 38.0094 34.4485 37.6549C35.3976 37.289 36.198 36.7916 36.9984 35.9912C37.7988 35.1908 38.2905 34.3846 38.6621 33.4413C39.0166 32.5265 39.2625 31.4802 39.3311 29.9423C39.3997 28.4043 39.4168 27.9184 39.4168 24.002C39.4168 20.0856 39.3997 19.5997 39.3311 18.0617C39.2625 16.5295 39.0166 15.4832 38.6621 14.5627C38.2962 13.6136 37.7988 12.8132 36.9984 12.0128C36.198 11.2124 35.3918 10.7207 34.4485 10.3491C33.5337 9.99459 32.4874 9.74875 30.9495 9.68014C29.4058 9.61725 28.9141 9.6001 25.0035 9.6001Z" fill="#EFF6FF"/>
<path d="M25.0037 16.6094C20.9215 16.6094 17.6055 19.9197 17.6055 24.0076C17.6055 28.0954 20.9158 31.4058 25.0037 31.4058C29.0915 31.4058 32.4019 28.0954 32.4019 24.0076C32.4019 19.9197 29.0915 16.6094 25.0037 16.6094ZM25.0037 28.8044C22.3508 28.8044 20.2011 26.6547 20.2011 24.0019C20.2011 21.349 22.3508 19.1993 25.0037 19.1993C27.6565 19.1993 29.8062 21.349 29.8062 24.0019C29.8062 26.6547 27.6565 28.8044 25.0037 28.8044Z" fill="#EFF6FF"/>
<path d="M32.6934 18.0387C33.647 18.0387 34.4201 17.2657 34.4201 16.3121C34.4201 15.3585 33.647 14.5854 32.6934 14.5854C31.7398 14.5854 30.9668 15.3585 30.9668 16.3121C30.9668 17.2657 31.7398 18.0387 32.6934 18.0387Z" fill="#EFF6FF"/>
</g>
<defs>
<filter id="filter0_d_542_1861" x="0" y="0" width="50" height="51" filterUnits="userSpaceOnUse" color-interpolation-filters="sRGB">
<feFlood flood-opacity="0" result="BackgroundImageFix"/>
<feColorMatrix in="SourceAlpha" type="matrix" values="0 0 0 0 0 0 0 0 0 0 0 0 0 0 0 0 0 0 127 0" result="hardAlpha"/>
<feOffset dy="2"/>
<feGaussianBlur stdDeviation="0.5"/>
<feComposite in2="hardAlpha" operator="out"/>
<feColorMatrix type="matrix" values="0 0 0 0 1 0 0 0 0 1 0 0 0 0 1 0 0 0 0.45 0"/>
<feBlend mode="normal" in2="BackgroundImageFix" result="effect1_dropShadow_542_1861"/>
<feBlend mode="normal" in="SourceGraphic" in2="effect1_dropShadow_542_1861" result="shape"/>
</filter>
</defs>
</svg>
