<svg width="50" height="51" viewBox="0 0 50 51" fill="none" xmlns="http://www.w3.org/2000/svg">
<g filter="url(#filter0_d_324_59)">
<rect x="1" width="48" height="48" rx="10.6667" fill="#742ACE"/>
<path d="M35.8189 11.6582H14.1824C13.6855 11.6582 13.2088 11.8502 12.8574 12.1919C12.506 12.5336 12.3086 12.9971 12.3086 13.4804V34.5201C12.3086 35.0033 12.506 35.4668 12.8574 35.8085C13.2088 36.1503 13.6855 36.3422 14.1824 36.3422H35.8189C36.3158 36.3422 36.7925 36.1503 37.1439 35.8085C37.4953 35.4668 37.6927 35.0033 37.6927 34.5201V13.4804C37.6927 12.9971 37.4953 12.5336 37.1439 12.1919C36.7925 11.8502 36.3158 11.6582 35.8189 11.6582ZM19.8745 32.6859H16.058V20.8976H19.8745V32.6859ZM17.9636 19.264C17.5307 19.2616 17.1082 19.1346 16.7495 18.8989C16.3907 18.6633 16.1118 18.3296 15.9479 17.94C15.784 17.5503 15.7425 17.1222 15.8286 16.7096C15.9146 16.2971 16.1245 15.9185 16.4316 15.6218C16.7387 15.3251 17.1293 15.1235 17.5541 15.0424C17.9789 14.9614 18.4189 15.0045 18.8185 15.1664C19.2181 15.3283 19.5595 15.6016 19.7995 15.952C20.0395 16.3024 20.1674 16.714 20.1671 17.135C20.1712 17.4168 20.1169 17.6966 20.0074 17.9576C19.8979 18.2186 19.7355 18.4555 19.5299 18.6541C19.3243 18.8528 19.0796 19.0092 18.8105 19.114C18.5415 19.2187 18.2534 19.2698 17.9636 19.264ZM33.9415 32.6962H30.1268V26.2561C30.1268 24.3568 29.2966 23.7705 28.2248 23.7705C27.0931 23.7705 25.9825 24.6002 25.9825 26.3041V32.6962H22.1661V20.9061H25.8362V22.5397H25.8856C26.254 21.8147 27.5444 20.5753 29.5134 20.5753C31.6428 20.5753 33.9433 21.8044 33.9433 25.4041L33.9415 32.6962Z" fill="#EFF6FF"/>
</g>
<defs>
<filter id="filter0_d_324_59" x="0" y="0" width="50" height="51" filterUnits="userSpaceOnUse" color-interpolation-filters="sRGB">
<feFlood flood-opacity="0" result="BackgroundImageFix"/>
<feColorMatrix in="SourceAlpha" type="matrix" values="0 0 0 0 0 0 0 0 0 0 0 0 0 0 0 0 0 0 127 0" result="hardAlpha"/>
<feOffset dy="2"/>
<feGaussianBlur stdDeviation="0.5"/>
<feComposite in2="hardAlpha" operator="out"/>
<feColorMatrix type="matrix" values="0 0 0 0 1 0 0 0 0 1 0 0 0 0 1 0 0 0 0.45 0"/>
<feBlend mode="normal" in2="BackgroundImageFix" result="effect1_dropShadow_324_59"/>
<feBlend mode="normal" in="SourceGraphic" in2="effect1_dropShadow_324_59" result="shape"/>
</filter>
</defs>
</svg>
